<svg width="83" height="24" viewBox="0 0 83 24" fill="none" xmlns="http://www.w3.org/2000/svg">
<g clip-path="url(#clip0_344_370)">
<path d="M23.7948 0.0078125L12.7529 23.7892H23.7948V0.0078125Z" fill="white"/>
<path d="M1.8291 0.0078125L11.9117 21.774L22.0011 0.0078125H1.8291Z" fill="white"/>
<path d="M0 23.8097H11.0418L11.0004 23.7407L0 0.0214844V23.8097Z" fill="white"/>
<path d="M81.1645 0.00700963V0.0760463L71.0405 21.7939L60.8821 0.00700963H59.0808L59.1774 0.193354L66.7066 16.3213L64.1394 21.787L53.9809 0.00700963H52.1797L52.2763 0.193354L63.3181 23.809H65.0227V23.74L67.5761 18.2674L70.164 23.7883H71.8686V23.7193L82.9105 -0.0136719L81.1645 0.00700963Z" fill="white"/>
<path d="M28.3918 0.0078125H26.7217V23.8099H28.3918V0.0078125Z" fill="white"/>
<path d="M31.4141 0V23.8158H50.9719V22.2286H33.0841V17.6945H50.337V16.1073H33.0841V1.61489H50.4612V0.0276315L31.4141 0Z" fill="white"/>
</g>
<defs>
<clipPath id="clip0_344_370">
<rect width="83" height="23.8158" fill="white"/>
</clipPath>
</defs>
</svg>
