<svg width="20" height="20" viewBox="0 0 20 20" fill="none" xmlns="http://www.w3.org/2000/svg">
<g clip-path="url(#clip0_855_1458)">
<path d="M19.4225 15.661C18.3562 14.7354 17.1789 13.9431 15.9127 13.3137C14.8612 12.8102 14.4762 12.8176 13.7283 13.3582C13.1063 13.8024 12.7065 14.2245 11.9956 14.069C11.2848 13.9135 9.87787 12.8472 8.51541 11.4922C7.15295 10.1371 6.08668 8.72284 5.93859 8.01199C5.79049 7.30115 6.20515 6.90129 6.64943 6.2793C7.18257 5.53143 7.19738 5.14639 6.69386 4.09493C6.06447 2.82873 5.27217 1.64398 4.33918 0.585115C3.5765 -0.192375 3.39879 -0.0220677 2.98413 0.13343C2.54725 0.318547 2.13259 0.533282 1.74014 0.792445C1.09594 1.15527 0.570204 1.70322 0.244399 2.36964C-0.0517874 3.00644 -0.399807 4.19859 1.3551 7.31596C2.64351 9.70026 4.27994 11.8772 6.20515 13.7876H6.21256C8.12296 15.7203 10.2999 17.3567 12.6842 18.6525C15.7942 20.4 16.9937 20.0594 17.6306 19.7632C18.297 19.4374 18.8449 18.9117 19.2077 18.2675C19.4669 17.875 19.689 17.4603 19.8668 17.0235C20.0149 16.6014 20.1852 16.4311 19.4151 15.661H19.4225Z" fill="white"/>
</g>
<defs>
<clipPath id="clip0_855_1458">
<rect width="20" height="20" fill="white"/>
</clipPath>
</defs>
</svg>
